<svg xmlns="http://www.w3.org/2000/svg" viewBox="0 0 406.96 90"><defs><style>.cls-1{fill:#7a7879;}.cls-2{fill:#c8cce4;}.cls-3{fill:#14579e;}</style></defs><title>ONSITE-blue-logo-cn_name</title><g id="Layer_2" data-name="Layer 2"><g id="Layer_1-2" data-name="Layer 1"><path class="cls-1" d="M206.84,28.46a24.4,24.4,0,0,1-3.37,4.12,4.65,4.65,0,0,0-1.4-1.32,17.8,17.8,0,0,0,3.62-4A20.25,20.25,0,0,0,208.41,22a5.63,5.63,0,0,0,1.64.74A44.53,44.53,0,0,1,206.84,28.46ZM213.92,34a10,10,0,0,0,1.4-1c.82,1.21,1.59,2.4,2.31,3.58s1.26,2.13,1.64,2.84c-.6.33-1.12.63-1.56.91-.33-.66-.77-1.46-1.32-2.39q-5.52.74-7.78,1.07a15.12,15.12,0,0,0-3.25.74,7.12,7.12,0,0,0-.91-1.81A4.31,4.31,0,0,0,206,36.78a21.36,21.36,0,0,0,2.18-3.46,24.29,24.29,0,0,0,2-4.61,8,8,0,0,0,1.89.91q-.9,1.39-2.43,4.19a29.35,29.35,0,0,1-2.18,3.63c2.52-.22,5.27-.5,8.23-.83A23.86,23.86,0,0,0,213.92,34Zm3.75-6.34a12.62,12.62,0,0,0,3.58,3.13,3.32,3.32,0,0,0-1.57,1.4,20.85,20.85,0,0,1-4.2-4.78,30.7,30.7,0,0,1-2.79-5.51,5.16,5.16,0,0,0,1.64-.58A22.27,22.27,0,0,0,217.67,27.64Z"/><path class="cls-1" d="M224.37,23.85V22.21c1.37.05,2.63.08,3.78.08H237c1.1,0,2.28,0,3.54-.08v1.64c-1.2-.05-2.55-.08-4-.08v6.09h1.56c1.1,0,2.28,0,3.54-.08v1.65c-1.26-.11-2.44-.17-3.54-.17h-1.56v4.45c0,1.37,0,2.91.08,4.61h-1.89c0-1.7.08-3.24.08-4.61V31.26h-4.11a23.44,23.44,0,0,1-.66,2.93,11.29,11.29,0,0,1-1.32,2.75,16,16,0,0,1-3.38,3.38,6.4,6.4,0,0,0-2-1.4,8.46,8.46,0,0,0,2.84-1.85,9.22,9.22,0,0,0,1.89-2.8,8.66,8.66,0,0,0,.78-3H227a34.15,34.15,0,0,0-4.12.25V29.78c1.38.06,2.75.08,4.12.08h2V23.77C227.33,23.77,225.79,23.8,224.37,23.85Zm10.45,6V23.77h-4.11v6.09Z"/><path class="cls-1" d="M251.93,24.51h8.24c-.06,1.27-.09,2.42-.09,3.46v9.22c0,1,0,2,.09,3h-1.65v-2h-11v2h-1.65q.09-1.56.09-2.88V27.89c0-1,0-2.11-.09-3.38h4.53c.22-1.48.36-2.58.41-3.29a12.21,12.21,0,0,0,2.14.49A9.76,9.76,0,0,0,251.93,24.51Zm6.59,4.12V25.91h-11v2.72Zm0,3.95V30h-11v2.63Zm0,4.28v-3h-11v3Z"/><path class="cls-1" d="M268.47,24.18h4.78a34.22,34.22,0,0,1-.87,3.75,11.68,11.68,0,0,1-2.47,4.36A16,16,0,0,1,266,35.71a3.4,3.4,0,0,0-1.48-1.07,11.33,11.33,0,0,0,3.38-2.55,9.14,9.14,0,0,0-2.06-1.9,5.23,5.23,0,0,0,1-1.15A19.59,19.59,0,0,1,269,31,10.72,10.72,0,0,0,270,29.53a16.52,16.52,0,0,0-2.39-2,7.94,7.94,0,0,0,.82-1.15,16.7,16.7,0,0,1,2.22,1.81,10,10,0,0,0,.74-2.72H267.9a41,41,0,0,1-2.64,3.95,3.9,3.9,0,0,0-1.56-.82A15.72,15.72,0,0,0,266.29,25a25.74,25.74,0,0,0,1.52-3.49,9,9,0,0,0,1.9.66A16.47,16.47,0,0,0,268.47,24.18Zm-2.88,16.47a3.74,3.74,0,0,0-1.48-.83A29.43,29.43,0,0,0,266.58,36a11.39,11.39,0,0,0,1.48,1C267.24,38.1,266.41,39.33,265.59,40.65Zm4.2-3.87a3.56,3.56,0,0,0,1.48-.58,17,17,0,0,1,1.48,3.62,7.47,7.47,0,0,0-1.56.58A22.44,22.44,0,0,0,269.79,36.78Zm12.27-8.56c-.77-.06-2.15-.09-4.12-.09a9.29,9.29,0,0,0,1.93,3.63,8.81,8.81,0,0,0,3.34,2.38,6.06,6.06,0,0,0-1.65,1.4,11.2,11.2,0,0,1-2.8-2.55A13.8,13.8,0,0,1,277,29.78a14.28,14.28,0,0,1-1.64,3.13,13.87,13.87,0,0,1-2.72,2.88A6.22,6.22,0,0,0,271,34.56a8.52,8.52,0,0,0,2.8-2.43,12.37,12.37,0,0,0,2-4q-1.65,0-2.88.09v-1.4c1,.05,2.05.08,3,.08a40.27,40.27,0,0,0-.08-5.1,11,11,0,0,0,1.81.16c-.11.93-.16,2.58-.16,4.94,2.08,0,3.59,0,4.53-.08Zm-7.83,8.48,1.32-.83a19.58,19.58,0,0,1,2.22,3.63,15.05,15.05,0,0,0-1.48.74A14,14,0,0,0,274.23,36.7Zm4.37-13.26a9.1,9.1,0,0,0,1-1,17.93,17.93,0,0,1,2.63,2.72,10.13,10.13,0,0,0-1.15,1A17.64,17.64,0,0,0,278.6,23.44Zm.08,13a5.5,5.5,0,0,0,1.4-.91,40.87,40.87,0,0,1,2.88,4,3.43,3.43,0,0,0-1.48.9A21,21,0,0,0,278.68,36.45Z"/><path class="cls-1" d="M288.63,23.28c.05-.61.11-1.29.17-2.06.6.11,1.2.19,1.81.25a7,7,0,0,0-.5,1.81h4.12A11.69,11.69,0,0,0,294,25a13.68,13.68,0,0,1-.24,2,1.77,1.77,0,0,1-.95,1.4,9.84,9.84,0,0,1-2.22.58,4.34,4.34,0,0,0-.66-1.73,8.83,8.83,0,0,0,2-.12c.19-.09.31-.95.37-2.6H290a5.33,5.33,0,0,1-1.28,2.8,11.32,11.32,0,0,1-2.76,2A4.09,4.09,0,0,0,284.76,28a5.76,5.76,0,0,0,2.43-1.19,4.71,4.71,0,0,0,1.28-2.27H287.4c-.33,0-1,.06-2,.17V23.19q1.49.09,2,.09Zm7.08,13.33c.88,0,1.84,0,2.88-.08v1.4c-1,0-1.95-.08-2.88-.08H288.3c-.93,0-2,0-3.13.08v-1.4c1.16.06,2.2.08,3.13.08Zm7-2.8c-.17.83-.3,1.72-.41,2.68s-.21,1.77-.29,2.43a1.33,1.33,0,0,1-.82,1.23,14.39,14.39,0,0,1-2.43.5,4.37,4.37,0,0,0-.66-1.81,6.74,6.74,0,0,0,2.14-.09c.22-.11.36-.46.41-1.07L300.9,35H288.71c.11-.94.19-1.92.25-3l1.73.09a13.84,13.84,0,0,0-.25,1.72h7.33l.58-2.79h-7.91a28.59,28.59,0,0,0-3.29.16V29.7c.93.05,2,.08,3.13.08h9.88c-.17.61-.42,1.95-.74,4Zm0-8.31c0,1.21,0,2.11.08,2.72h-7.24c.05-.72.08-1.54.08-2.47s0-1.92-.08-2.8h7.24C302.74,23.44,302.71,24.29,302.71,25.5Zm-1.65,1.56V24.18h-3.87v2.88Z"/><path class="cls-1" d="M310.35,35.3c-.6.11-1.44.24-2.51.41a20.32,20.32,0,0,0-2.18.41,9.47,9.47,0,0,0-.66-1.65c.5,0,1.25,0,2.27-.12s2.1-.21,3.25-.37Zm2.06-12.76c-.11.77-.19,1.48-.24,2.14l-.42,5.92h1.81a39.64,39.64,0,0,0-.53,4.16,37.08,37.08,0,0,1-.49,3.91,1.46,1.46,0,0,1-1.16,1.07,17,17,0,0,1-2.51.41,5.62,5.62,0,0,0-.49-1.81,10.31,10.31,0,0,0,2.26,0c.36-.08.56-.45.62-1.11l.49-5.35h-5.26q.17-1.48.24-3.21c.06-1.15.11-2.25.17-3.29l1.64.08c-.11.49-.24,2.22-.41,5.18h2.14l.5-6.83H308c-.77,0-1.6,0-2.47.08v-1.4c.87.06,1.7.09,2.47.09Zm5.85-1.24c.6.11,1.18.19,1.73.25a21.13,21.13,0,0,0-.17,3h4.12a28.69,28.69,0,0,0-.17,3.3,24.37,24.37,0,0,0,.17,3.13h-4.12c-.05.87-.12,1.71-.2,2.51a13.7,13.7,0,0,1-.79,3,10.82,10.82,0,0,0,2.64,1.28,11.55,11.55,0,0,0,3.29.61,5.43,5.43,0,0,0-1.07,1.73,23.33,23.33,0,0,1-3-1,12.52,12.52,0,0,1-2.64-1.49,8.59,8.59,0,0,1-1.52,1.49c-.58.43-1.25.9-2,1.4A4.68,4.68,0,0,0,313,39.33a10.41,10.41,0,0,0,2.26-1.07,9.1,9.1,0,0,0,1.69-1.48A6.35,6.35,0,0,1,315.5,35c-.3-.61-.62-1.26-.95-2a8.46,8.46,0,0,0,1.48-.57,8.06,8.06,0,0,0,.7,1.72,6.43,6.43,0,0,0,1,1.4,14.68,14.68,0,0,0,.46-2.18,20.36,20.36,0,0,0,.12-2.34h-3.79c.06-.83.09-1.87.09-3.13s0-2.42-.09-3.3h3.87C318.37,23.39,318.31,22.29,318.26,21.3Zm.16,8.48v-4h-2.3v4Zm3.87,0v-4h-2.47v4Z"/><path class="cls-1" d="M330.1,23.36c3,0,5,0,6.18-.08v1.48c-1.21-.05-2.31-.08-3.3-.08,0,.49,0,1.12-.08,1.89,1.76,0,3.05,0,3.87-.08V28c-.82,0-2.2-.08-4.12-.08l-.16.57c1.7.66,3.05,1.24,4,1.73a15.93,15.93,0,0,0-1,1.48,14.65,14.65,0,0,0-3.71-2,12.35,12.35,0,0,1-3.7,3.13,6.61,6.61,0,0,0-1.24-1.24A8.92,8.92,0,0,0,329.48,30,5.12,5.12,0,0,0,331,27.89c-2,0-3.49,0-4.37.08V26.49c.88.05,2.45.08,4.7.08a7.79,7.79,0,0,0,.08-1.89h-1.89a12.15,12.15,0,0,1-1.16,1.73c-.6-.33-1.07-.61-1.4-.83a15.38,15.38,0,0,0,1.53-2.14,9.88,9.88,0,0,0,1.11-2.3,11.34,11.34,0,0,0,1.73.66A9.74,9.74,0,0,0,330.1,23.36Zm11.69,12.92c0,1.82,0,3.19.08,4.12h-1.72v-1H331.5v1h-1.73c.06-.88.09-2.22.09-4s0-3.27-.09-4.2h12.1C341.82,33.1,341.79,34.47,341.79,36.28Zm-1.64-1.15V33.32H331.5v1.81Zm0,3V36.37H331.5V38.1Zm-2.64-7.58c.06-.88.08-2.06.08-3.54s0-2.74-.08-3.62H344c-.06.66-.09,1.81-.09,3.46s0,2.88.09,3.7Zm4.78-1.32V24.68h-3.13V29.2Z"/><path class="cls-1" d="M355,27.39c-1.81.11-3.32.22-4.52.33a17.52,17.52,0,0,0-2.72.41,10.16,10.16,0,0,0-.58-1.72,6.32,6.32,0,0,0,1.77-1.77,14.62,14.62,0,0,0,1.94-3.26,2.84,2.84,0,0,0,.9.5c.33.11.69.25,1.07.41a6.42,6.42,0,0,0-1.35,1.48c-.47.66-1.23,1.59-2.27,2.8l5.11-.25c-.66-.87-1.13-1.45-1.4-1.73a10.75,10.75,0,0,0,1.31-.9c.44.6.87,1.15,1.28,1.65l1.61,1.89-1.49,1.07A6.19,6.19,0,0,0,355,27.39Zm-1,11.24a1.78,1.78,0,0,0,.16-.86V36.61h-4.44v3.87h-1.57c.06-1.1.08-2.08.08-3V32c0-1,0-1.86-.08-2.63h7.57c-.05.82-.08,1.73-.08,2.72V39a1.2,1.2,0,0,1-.74,1.15,9.36,9.36,0,0,1-1.89.42,6.3,6.3,0,0,0-.66-1.65C353.31,38.92,353.86,38.82,354,38.63Zm.16-6.38V30.69h-4.44v1.56Zm0,3V33.57h-4.44V35.3Zm5-10.38c.77-.33,1.51-.67,2.23-1a13,13,0,0,0,2.14-1.35c.43.55.82,1,1.15,1.4a22.71,22.71,0,0,0-2.1.94,24.86,24.86,0,0,1-3.42,1.36v1.24c0,.65.39,1,1.16,1h2.38c.55,0,.91-.71,1.07-2.14a17.08,17.08,0,0,0,1.65.74c-.39,1.76-1.07,2.64-2.06,2.64h-3.7c-1.32,0-2-.6-2-1.81v-4.2c0-.66,0-1.37-.08-2.14h1.64a22.88,22.88,0,0,0-.08,2.39Zm3.67,9a33.42,33.42,0,0,1-3.67,1.4v2.3c0,.66.3,1,.91,1h3c.44-.11.74-.8.91-2.06a13.21,13.21,0,0,0,1.64.66c-.38,1.76-1,2.63-1.89,2.63h-4.45a1.38,1.38,0,0,1-1.56-1.56V32.91c0-.82,0-1.56-.08-2.22h1.64c-.05.66-.08,1.37-.08,2.14V33.9a16,16,0,0,0,2.18-.91,9.2,9.2,0,0,0,2.19-1.4,13.79,13.79,0,0,0,1.23,1.48A19,19,0,0,0,362.82,33.9Z"/><path class="cls-1" d="M371,36.45q-1.28,2.22-2.1,3.54a7.73,7.73,0,0,0-1.89-1.24,13.7,13.7,0,0,0,2.26-2.67,21.62,21.62,0,0,0,2-3.58,7.22,7.22,0,0,0,1.56,1.07A22,22,0,0,0,371,36.45Zm-3.42-7.74a4.88,4.88,0,0,0,.82-1.4,34.06,34.06,0,0,1,3.71,1.89,17.51,17.51,0,0,1-1,1.49A13.33,13.33,0,0,0,367.62,28.71Zm5.27-3.87a8.33,8.33,0,0,0-1.15,1.24,16.06,16.06,0,0,0-3.13-2.56,5.7,5.7,0,0,0,1.15-1.15A20.47,20.47,0,0,1,372.89,24.84Zm3.87-1.15H382c1.26,0,2.35,0,3.29-.08v1.48c-.94-.06-2.06-.08-3.38-.08h-5.59c-.66,1.26-1.35,2.49-2.06,3.7a10.29,10.29,0,0,0-1.73-.66,13.4,13.4,0,0,0,2.3-3.78c.55-1.38.91-2.34,1.07-2.89a11.33,11.33,0,0,0,1.81.66A6.28,6.28,0,0,0,376.76,23.69Zm8.89,16.67a1.61,1.61,0,0,1-1.65-.21,4.9,4.9,0,0,1-1.73-2.59,18.24,18.24,0,0,1-.65-6.21h-5.27c-.83,0-1.59,0-2.31.08V30c.72.05,1.48.08,2.31.08h7a31.46,31.46,0,0,0-.13,3.54,16.8,16.8,0,0,0,.41,3,3.58,3.58,0,0,0,.95,2.06c.38.28.66-.44.82-2.14a4.17,4.17,0,0,0,1.65.91C386.56,39.14,386.09,40.11,385.65,40.36Zm-1.4-12.06c-.55-.05-1.37-.08-2.47-.08h-3c-.82,0-1.67,0-2.55.08V26.82c.88.05,1.73.08,2.55.08h3.13c1,0,1.84,0,2.39-.08Z"/><path class="cls-1" d="M389.92,30.11a5.52,5.52,0,0,0,2.18-1.77A22.31,22.31,0,0,0,394,25.75c-2,0-3.67,0-4.93.08V24.18q1.73.09,5.76.09a18,18,0,0,0,1.32-3.22,16.78,16.78,0,0,0,1.89.83,21.08,21.08,0,0,0-1.48,2.39h5.59c.66,0,1.68,0,3-.09v1.65c-1.1,0-2.11-.08-3-.08h-6.33q-.91,1.39-3.13,4.28h4.61c0-1,0-2.11-.08-3.21H399q-.09,1.39-.09,3.21h2.8c1.1,0,2.17,0,3.21-.08v1.64c-1-.05-2.11-.08-3.21-.08h-2.8v3.13h4.61c1.05,0,2.2,0,3.46-.08v1.72c-1.26-.05-2.41-.08-3.46-.08h-4.61q0,2.64.09,4.2h-1.81c.05-1.1.08-2.5.08-4.2h-5.68c-1.21,0-2.36,0-3.46.08V34.56c1.1,0,2.25.08,3.46.08h5.68V31.51c-2,0-3.35,0-4.12.08a16.08,16.08,0,0,0-2.47.41C390.39,31.24,390.14,30.6,389.92,30.11Z"/><path class="cls-1" d="M205.11,53.42a20.08,20.08,0,0,1-1.89,2.89A5.76,5.76,0,0,0,202,55.23a21.6,21.6,0,0,0,2.64-4,22.26,22.26,0,0,0,2-4.73,8.86,8.86,0,0,0,1.82.9,17.09,17.09,0,0,0-1.73,3.3v11c0,1.26,0,2.58.08,3.95H205c.05-1.37.08-2.66.08-3.87Zm5.39,6.75a28.48,28.48,0,0,0,.79-8.39h-1l-2.31.16V50.38c.72,0,1.46.08,2.23.08h8.23c.88,0,1.78,0,2.72-.08v1.48c-.94,0-1.84-.08-2.72-.08h-5.52l-.08,2.71h6.92c-.11.72-.2,1.51-.25,2.39l-.5,6.67a1.82,1.82,0,0,1-1.19,1.73,13.12,13.12,0,0,1-2.51.49,6,6,0,0,0-.66-1.81,9.19,9.19,0,0,0,2.14-.16q.58-.16.66-1l.41-6.92h-5.1q-.26,6.26-3.62,10a5.77,5.77,0,0,0-1.57-1.32A8.84,8.84,0,0,0,210.5,60.17Zm4.9-10.7c-.44.22-1,.5-1.56.83a14.32,14.32,0,0,0-1.57-3,7,7,0,0,0,1.4-.82C214,46.92,214.58,47.94,215.4,49.47Z"/><path class="cls-1" d="M232.93,48.48h4.77c.72,0,1.68,0,2.88-.08v1.32c-1.15,0-2.11-.08-2.88-.08h-4.94L232.6,51h5.76c-.05.66-.08,1.42-.08,2.3v6.83h1.23c.88,0,1.62,0,2.23-.08v1.57q-1.65-.09-3.87-.09H226.51c-1.49,0-2.69,0-3.63.09V60.09c.83.06,1.65.08,2.47.08h1.07V53.59c0-.82,0-1.67-.08-2.55H231l.09-1.4h-4.78c-.77,0-1.62,0-2.55.08V48.4c1.21.06,2,.08,2.47.08h5.1a14.88,14.88,0,0,0,.09-1.64c.76,0,1.42.08,2,.08A4.86,4.86,0,0,0,232.93,48.48Zm-5,16c-1.1.43-2.12.82-3,1.15-.38-.39-.77-.74-1.15-1.07a29.43,29.43,0,0,0,3.37-1.28A23,23,0,0,0,229.47,62a14.78,14.78,0,0,0,1.4,1.07A26.46,26.46,0,0,1,227.91,64.46Zm8.72-11.12V52.27h-8.56v1.07Zm0,2.22v-1h-8.56v1Zm0,2.31v-1h-8.56v1Zm0,2.3V59.1h-8.56v1.07ZM238,62.89c.93.39,1.92.82,3,1.32a10.45,10.45,0,0,0-1.23,1.4,18.69,18.69,0,0,0-3-1.57,21.22,21.22,0,0,0-2.47-.9c.28-.39.58-.77.91-1.15A19,19,0,0,1,238,62.89Z"/><path class="cls-1" d="M246.05,62.11c-.58,1.29-1,2.26-1.28,2.92A10.2,10.2,0,0,0,243,63.8a16.56,16.56,0,0,0,1.86-2.88,25.94,25.94,0,0,0,1.6-3.79c.5.38,1,.74,1.48,1.07C247.27,59.52,246.62,60.82,246.05,62.11Zm1.27-7.53a13.31,13.31,0,0,0-1.15,1.31,14.39,14.39,0,0,0-2.8-2.55,8.27,8.27,0,0,0,1-1.23C245.51,53,246.5,53.81,247.32,54.58ZM244,48.32c.33-.38.66-.8,1-1.24a30.31,30.31,0,0,1,3,2.23,4,4,0,0,0-1.07,1.23A19.68,19.68,0,0,0,244,48.32Zm9,7.74a14.12,14.12,0,0,1-1.19,5.84,14.94,14.94,0,0,1-2.51,3.79,4.29,4.29,0,0,0-1.57-.91,11.67,11.67,0,0,0,2.89-4.24,14.45,14.45,0,0,0,.94-5,40.14,40.14,0,0,0-.12-4.36c.6.11,1.2.19,1.81.25C253.06,52.16,253,53.7,252.92,56.06Zm2.64-5.52v5.85c0,1,0,2,.08,2.88h-1.57v-9.8h-3.95v9.88h-1.48c.06-1,.08-2,.08-3V50.54c0-.44,0-1.23-.08-2.38h7C255.58,48.7,255.56,49.5,255.56,50.54Zm1,13.59a5.32,5.32,0,0,0-1.4,1.07,19.52,19.52,0,0,0-2.79-4,7.06,7.06,0,0,0,1.23-1A23.6,23.6,0,0,1,256.54,64.13Zm2.06-12.19V57.7c0,1.16,0,2.23.08,3.22H257c0-.66.08-1.73.08-3.22V51.94c0-.93,0-1.7-.08-2.3h1.64C258.63,50.24,258.6,51,258.6,51.94Zm3.13-2.63v14.4a1.37,1.37,0,0,1-.74,1.4,9.33,9.33,0,0,1-2.22.58,6,6,0,0,0-.66-1.81,11.11,11.11,0,0,0,1.6-.08c.31-.06.46-.36.46-.91V49.31q0-1.32-.09-2.31h1.73C261.76,47.61,261.73,48.38,261.73,49.31Z"/><path class="cls-1" d="M268,53.26c-.06,1.1-.08,2.2-.08,3.29v5.11c.76-.72,1.48-1.37,2.14-2a6.84,6.84,0,0,0,.82,1.4,51,51,0,0,0-4.12,3.79,5.66,5.66,0,0,0-1-1.32,1.71,1.71,0,0,0,.65-1.56V54.74c-.87,0-1.67,0-2.38.08V53.18c.71,0,1.28.08,1.73.08Zm.66-3a11.46,11.46,0,0,1-1.24,1.07,16.09,16.09,0,0,0-2.47-2.88c.44-.38.83-.74,1.15-1.07A25.62,25.62,0,0,1,268.64,50.21Zm7.41.91C276,50,276,49.23,276,48.73s0-1.29-.08-2.22a14.32,14.32,0,0,0,1.81.33c-.05.66-.08,1.23-.08,1.73v2.55H280c.77,0,1.56,0,2.38-.08v1.48c-.76-.06-1.59-.08-2.47-.08h-2.22q.17,2.22.45,4a31.78,31.78,0,0,0,.83,3.62A10.83,10.83,0,0,0,280.2,63c.47.72.78.74.95.09a13.91,13.91,0,0,0,.33-2.31A3.28,3.28,0,0,0,283.13,62c-.28,1.75-.66,2.86-1.16,3.33a1.24,1.24,0,0,1-1.64.16,4.85,4.85,0,0,1-1.69-2,16.38,16.38,0,0,1-1.32-3.34,24.83,24.83,0,0,1-.78-3.91c-.17-1.34-.3-2.62-.41-3.82h-3.87c-1.1,0-2.12,0-3.05.08V51c.88.05,1.87.08,3,.08Zm-.58,5.43c-.61,0-1.18-.08-1.73-.08v5.35c.71-.22,1.43-.46,2.14-.74a6,6,0,0,0,.17,1.56q-1.24.26-2.64.66t-2.88,1a3.9,3.9,0,0,0-.82-1.56,13.09,13.09,0,0,0,2.55-.58V56.47c-.61,0-1.24,0-1.89.08V55c.82,0,1.67.08,2.55.08s1.78,0,2.55-.08Zm6.83-7.24a8.26,8.26,0,0,0-1.4,1.07,15.79,15.79,0,0,0-2.14-2.72c.33-.22.74-.52,1.24-.9A27.53,27.53,0,0,1,282.3,49.31Z"/><path class="cls-1" d="M289.87,47.74c.54,0,1.18,0,1.89-.08v1.48c-.71,0-1.35-.08-1.89-.08h-.58V53c.77,0,1.62,0,2.55-.08v1.48c-1,0-1.84-.08-2.55-.08V59a13.83,13.83,0,0,0,2.47-1c0,.44,0,1,.08,1.57-1.64.6-2.89,1-3.74,1.32A26.16,26.16,0,0,0,285.34,62a17.71,17.71,0,0,0-.82-1.73,20.54,20.54,0,0,0,3.29-.74V54.33a20,20,0,0,0-2.64.16V52.93c.83.06,1.7.08,2.64.08V49.06h-.74c-.72,0-1.43,0-2.14.08V47.66c.71.06,1.4.08,2.05.08Zm10.86,0c.83,0,1.76,0,2.8-.08v1.57c-.93-.06-1.86-.09-2.8-.09h-1.56c-.5,1.76-.82,3-1,3.63v10c0,1.1,0,2.08.08,3h-1.73c.06-.82.09-1.81.09-3V56.22a20.57,20.57,0,0,1-4.2,5.68,7.59,7.59,0,0,0-1.48-1.07,11,11,0,0,0,2.18-2.1,23.65,23.65,0,0,0,2-3,16.84,16.84,0,0,0,1.44-3.21c.3-1,.58-2.11.86-3.38h-2.3c-.88,0-1.79,0-2.72.09V47.66c.93.06,1.84.08,2.72.08ZM304,59c-.55.33-1.07.66-1.57,1-.82-1.48-1.47-2.58-1.93-3.29s-1-1.49-1.69-2.31a5.85,5.85,0,0,0,1.32-1Q302.71,56.88,304,59Z"/><path class="cls-1" d="M308.3,61.45a14.73,14.73,0,0,0-2.47,1.19c-.28-.71-.5-1.31-.66-1.81a6.54,6.54,0,0,0,1.27-.24l1-.33V53.34a14.28,14.28,0,0,0-2,.17V52c.77.06,1.42.09,2,.09v-3c0-.54,0-1.2-.08-2H309c-.06.82-.09,1.48-.09,2v3c.44,0,1,0,1.81-.09v1.49a13.75,13.75,0,0,0-1.81-.17v6.42c.83-.27,1.57-.55,2.23-.82,0,.38.13.85.24,1.4C310.35,60.67,309.34,61,308.3,61.45Zm13.5,2.76a.73.73,0,0,0,.74-.62c.11-.41.22-.84.33-1.28a3.38,3.38,0,0,0,1.73.83c-.44,1.48-.9,2.26-1.36,2.34a6.49,6.49,0,0,1-1.2.13h-2.38c-1.27,0-1.87-.61-1.81-1.81V60.5H316.2a5.2,5.2,0,0,1-1.85,3.38,12.6,12.6,0,0,1-4.24,2.06,5,5,0,0,0-.91-1.65,7.9,7.9,0,0,0,4.12-1.44,4.18,4.18,0,0,0,1.4-2.35h-2.55c.05-1.15.08-2.19.08-3.12s0-2-.08-3h10.29c-.06.82-.09,1.76-.09,2.8s0,2.14.09,3.29h-3v2.64c-.06.77.22,1.12.82,1.07Zm-5.6-12.76-1.32.66h3.46a18.72,18.72,0,0,0,.66-2.56h-4.36q-1.81,0-3,.09v-1.4c.71,0,1.7.08,3,.08h2.14a6.35,6.35,0,0,0-.42-1.73c.44-.05,1.05-.16,1.82-.33.16.77.3,1.46.41,2.06h1.81c1,0,1.92,0,2.8-.08v1.4c-.88-.06-1.79-.09-2.72-.09h-1.32l1.65.75a7.18,7.18,0,0,0-1,1.81h1.73q1.32,0,2.55-.09v1.49a19.16,19.16,0,0,0-2.55-.17h-7.49a20.66,20.66,0,0,0-2.72.17V52c.83.06,1.7.09,2.64.09h.74a4.53,4.53,0,0,0-.83-1.65c.44-.22.88-.47,1.32-.74C315.49,50.16,315.81,50.74,316.2,51.45ZM321,56.88V55.56h-7.16v1.32Zm0,2.47V58h-7.16v1.32Z"/><path class="cls-2" d="M99.78,36.33l-7.71,4.09c-.26.13-.42.19-.54.12l0,0,4.12,6.76c-.15-.28-.33-.56-.48-.84s-.2-.4.54-.79c3.25-1.74,6.52-3.44,9.77-5.19V33.19C103.58,34.28,101.69,35.31,99.78,36.33Z"/><path class="cls-2" d="M80.91,45.68c.19.34.19.36-.47.7-3,1.56-6.09,3.14-9.09,4.78v7.25c2.2-1.26,4.45-2.46,6.7-3.64l5.82-3.08c.16-.1.3-.23.45-.34l.08.09a.46.46,0,0,1,.12.12l.54.84-4.78-7.85C80.48,44.93,80.71,45.29,80.91,45.68Z"/><polygon class="cls-3" points="186.58 30.9 186.58 22.91 156.62 22.91 156.62 64.86 186.58 64.86 186.58 56.56 166.61 56.56 166.61 47.4 185.57 47.4 185.57 39.51 166.61 39.51 166.61 30.9 186.58 30.9"/><path class="cls-3" d="M18.09,24.7q-8.7,0-13.39,6.15T0,46.18a25.45,25.45,0,0,0,4.64,15.4q4.64,6.36,13.11,6.36,8.84,0,13.45-6.27t4.6-15.4a26.09,26.09,0,0,0-4.46-15Q26.87,24.71,18.09,24.7ZM18,59.92q-7.73,0-7.72-13.62T18,32.72q7.49,0,7.49,13.61T18,59.92Z"/><path class="cls-3" d="M129.92,24.11a39.26,39.26,0,0,1-4.77,5.39c-.6.56-1.24,1.14-1.91,1.71h10.23V64.86h10V31.21h10.39v-8.3H130.74C130.46,23.33,130.19,23.72,129.92,24.11Z"/><path class="cls-3" d="M128.27,22.91A25.49,25.49,0,0,0,130.09,20a18,18,0,0,0,1.85-4.84,12.53,12.53,0,0,0,.29-2.59C132.23-2,116.32-.12,112.78.32c-8.32,1-25.07,7.14-34.23,22.69a17.63,17.63,0,0,0-2.61,8.56,18.23,18.23,0,0,0,2,8.81c.68,1.37,1.44,2.68,2.2,4l.09.15,4.78,7.85v0a29.16,29.16,0,0,1,3.36,6.78A11.89,11.89,0,0,1,88.56,66a17.55,17.55,0,0,1-5.87,8.5,29,29,0,0,1-13.9,6.54c-5.8,1.06-10,.35-12.19-2.36a5.74,5.74,0,0,1-.79-5.87,16.67,16.67,0,0,1,2.41-4.19c.36-.46.73-.91,1.13-1.34A27.65,27.65,0,0,1,61.67,65a45.55,45.55,0,0,1,5.21-3.89l.73-.48.1-.06c1.19-.76,2.41-1.49,3.64-2.2V25.35H61.52V45.87L49.68,25.35H39.08V67.3h7.49a32.65,32.65,0,0,1,2.34-2.79c0-4.28,0-12.5,0-17.44V43l9.33,16.1c-.87.62-1.72,1.26-2.54,1.92l-.34.27a36,36,0,0,0-9.51,10.84c-.11.19-.32.62-.41.81h0c-3.92,8.11-.74,14.85,8.17,16.53,7,1.3,15,.14,24.06-3.81A45.15,45.15,0,0,0,92.76,75.2c5.61-6,7.72-11.57,7.3-16.77A21.65,21.65,0,0,0,97.17,50c-.47-.86-1-1.71-1.47-2.56l-.09-.15L91.49,40.5l0,0-.73-1.18c-.47-.75-.91-1.52-1.34-2.3C83,25.33,106,10.85,115.84,11.46a4.51,4.51,0,0,1,2,.57l.16.09.18.13a7.23,7.23,0,0,1,1,.89,5.31,5.31,0,0,1,1.2,2.06,5.6,5.6,0,0,1,.25,1.63A9.28,9.28,0,0,1,119,21.74c-.27.4-.54.8-.83,1.17a24.45,24.45,0,0,1-3,3.29c-.41.4-.84.78-1.27,1.15-1,.87-2.1,1.68-3.23,2.48-.35.24-.69.48-1,.71q-2.07,1.38-4.24,2.65V64.87h9.79V34.69c1.69-1.11,3.31-2.29,4.86-3.5l.54-.44.07-.05q1.62-1.32,3.06-2.67A35.6,35.6,0,0,0,128.27,22.91Z"/></g></g></svg>